<svg xmlns="http://www.w3.org/2000/svg" xmlns:xlink="http://www.w3.org/1999/xlink" width="705.572" height="604.5" viewBox="0 0 705.572 604.5">
  <defs>
    <filter id="路径_1" x="0" y="152.514" width="381.986" height="381.986" filterUnits="userSpaceOnUse">
      <feOffset dx="16" dy="21" input="SourceAlpha"/>
      <feGaussianBlur stdDeviation="15" result="blur"/>
      <feFlood flood-opacity="0.161"/>
      <feComposite operator="in" in2="blur"/>
      <feComposite in="SourceGraphic"/>
    </filter>
    <filter id="路径_2" x="398.5" y="240.186" width="307.072" height="307.072" filterUnits="userSpaceOnUse">
      <feOffset dx="17" dy="21" input="SourceAlpha"/>
      <feGaussianBlur stdDeviation="15" result="blur-2"/>
      <feFlood flood-opacity="0.161"/>
      <feComposite operator="in" in2="blur-2"/>
      <feComposite in="SourceGraphic"/>
    </filter>
    <filter id="椭圆_4" x="118.5" y="374.5" width="230" height="230" filterUnits="userSpaceOnUse">
      <feOffset dx="16" dy="21" input="SourceAlpha"/>
      <feGaussianBlur stdDeviation="14.5" result="blur-3"/>
      <feFlood flood-opacity="0.161"/>
      <feComposite operator="in" in2="blur-3"/>
      <feComposite in="SourceGraphic"/>
    </filter>
    <filter id="椭圆_1" x="12" y="0" width="486" height="480" filterUnits="userSpaceOnUse">
      <feOffset dx="17" dy="21" input="SourceAlpha"/>
      <feGaussianBlur stdDeviation="15" result="blur-4"/>
      <feFlood flood-opacity="0.161"/>
      <feComposite operator="in" in2="blur-4"/>
      <feComposite in="SourceGraphic"/>
    </filter>
  </defs>
  <g id="navigation" transform="translate(185 236)">
    <text id="About" transform="translate(28 48)" fill="#fff" font-size="28" font-family="GeosansLight"><tspan x="0" y="0">About</tspan></text>
    <g transform="matrix(1, 0, 0, 1, -185, -236)" filter="url(#路径_1)">
      <g id="路径_1-2" data-name="路径 1" transform="translate(29 176.51)" fill="none">
        <path d="M145.993,0A145.993,145.993,0,1,1,0,145.993,145.993,145.993,0,0,1,145.993,0Z" stroke="none"/>
        <path d="M 145.9931640625 6 C 68.8006591796875 6 6 68.8006591796875 6 145.9931640625 C 6 223.1856689453125 68.8006591796875 285.986328125 145.9931640625 285.986328125 C 223.1856689453125 285.986328125 285.986328125 223.1856689453125 285.986328125 145.9931640625 C 285.986328125 68.8006591796875 223.1856689453125 6 145.9931640625 6 M 145.9931640625 0 C 226.6229553222656 0 291.986328125 65.36337280273438 291.986328125 145.9931640625 C 291.986328125 226.6229248046875 226.6229553222656 291.986328125 145.9931640625 291.986328125 C 65.36337280273438 291.986328125 0 226.6229248046875 0 145.9931640625 C 0 65.36337280273438 65.36337280273438 0 145.9931640625 0 Z" stroke="none" fill="#584d7e"/>
      </g>
    </g>
    <g transform="matrix(1, 0, 0, 1, -185, -236)" filter="url(#路径_2)">
      <g id="路径_2-2" data-name="路径 2" transform="translate(426.5 264.19)" fill="none">
        <path d="M108.536,0A108.536,108.536,0,1,1,0,108.536,108.536,108.536,0,0,1,108.536,0Z" stroke="none"/>
        <path d="M 108.5361328125 6 C 51.99752807617188 6 6 51.99752807617188 6 108.5361328125 C 6 165.0747375488281 51.99752807617188 211.072265625 108.5361328125 211.072265625 C 165.0747375488281 211.072265625 211.072265625 165.0747375488281 211.072265625 108.5361328125 C 211.072265625 51.99752807617188 165.0747375488281 6 108.5361328125 6 M 108.5361328125 0 C 168.4789733886719 0 217.072265625 48.59329223632813 217.072265625 108.5361328125 C 217.072265625 168.4789733886719 168.4789733886719 217.072265625 108.5361328125 217.072265625 C 48.59329223632813 217.072265625 0 168.4789733886719 0 108.5361328125 C 0 48.59329223632813 48.59329223632813 0 108.5361328125 0 Z" stroke="none" fill="#784d5d"/>
      </g>
    </g>
    <g transform="matrix(1, 0, 0, 1, -185, -236)" filter="url(#椭圆_4)">
      <g id="椭圆_4-2" data-name="椭圆 4" transform="translate(146 397)" fill="none" stroke="#695175" stroke-width="5">
        <circle cx="71.5" cy="71.5" r="71.5" stroke="none"/>
        <circle cx="71.5" cy="71.5" r="69" fill="none"/>
      </g>
    </g>
    <g transform="matrix(1, 0, 0, 1, -185, -236)" filter="url(#椭圆_1)">
      <ellipse id="椭圆_1-2" data-name="椭圆 1" cx="168" cy="165" rx="168" ry="165" transform="translate(70 54)" fill="#c54860"/>
    </g>
    <text id="About-2" data-name="About" transform="translate(28 66)" fill="#fff" font-size="28" font-family="GeosansLight"><tspan x="0" y="0">About</tspan></text>
    <g id="组_2103" data-name="组 2103" transform="translate(197)">
      <text id="Wanyi_Xie" data-name="Wanyi Xie" transform="translate(76 41)" fill="#fff" font-size="28" font-family="AmaticSC-Regular, Amatic SC"><tspan x="0" y="28">Wanyi Xie</tspan></text>
      <text id="Fun" transform="translate(116 142.001)" fill="#fff" font-size="28" font-family="GeosansLight"><tspan x="0" y="0">Fun</tspan></text>
      <text id="Projects" transform="translate(69 210.999)" fill="#fff" font-size="28" font-family="GeosansLight"><tspan x="0" y="0">Projects</tspan></text>
      <text id="Contact" transform="translate(66 281)" fill="#fff" font-size="28" font-family="GeosansLight"><tspan x="0" y="0">Contact</tspan></text>
    </g>
  </g>
</svg>
